<?xml version="1.0" standalone="no"?>
<!DOCTYPE svg PUBLIC "-//W3C//DTD SVG 20010904//EN"
 "http://www.w3.org/TR/2001/REC-SVG-20010904/DTD/svg10.dtd">
<svg version="1.0" xmlns="http://www.w3.org/2000/svg"
 width="225.000000pt" height="225.000000pt" viewBox="0 0 225.000000 225.000000"
 preserveAspectRatio="xMidYMid meet">
<metadata>
Created by potrace 1.11, written by Peter Selinger 2001-2013
</metadata>
<g transform="translate(0.000000,225.000000) scale(0.100000,-0.100000)"
fill="#000000" stroke="none">
<path d="M1593 1212 c-154 -55 -226 -199 -179 -356 32 -105 104 -169 275 -241
162 -69 207 -135 142 -207 -26 -29 -35 -33 -98 -36 -84 -5 -132 15 -185 78
-19 22 -38 40 -41 40 -6 0 -157 -87 -165 -95 -9 -9 32 -66 77 -109 65 -60 135
-92 232 -107 254 -37 448 110 425 324 -14 139 -78 206 -292 307 -131 63 -146
73 -160 105 -18 43 -10 79 23 105 52 40 158 14 185 -45 6 -14 14 -24 18 -23
34 15 160 104 160 113 0 24 -84 107 -134 132 -69 36 -205 43 -283 15z"/>
<path d="M1008 819 l-3 -401 -28 -24 c-19 -16 -40 -24 -67 -24 -54 0 -85 16
-116 61 -15 22 -30 39 -34 39 -9 0 -149 -85 -162 -98 -13 -13 51 -100 98 -133
66 -45 120 -61 209 -62 143 -2 247 56 296 165 24 53 24 55 27 466 l3 412 -110
0 -110 0 -3 -401z"/>
</g>
</svg>
